<svg width="193" height="128" viewBox="0 0 193 128" fill="none" xmlns="http://www.w3.org/2000/svg">
  <g opacity="0.7">
    <path
      d="M4.73762 74.2897L54.2178 123.77C54.7026 124.255 55.2782 124.639 55.9116 124.902C56.5451 125.164 57.224 125.299 57.9097 125.299C58.5953 125.299 59.2743 125.164 59.9077 124.902C60.5412 124.639 61.1167 124.255 61.6016 123.77L62.6938 122.678L88.7938 96.5776L104.086 81.2858L110.639 74.7321C113.55 71.8266 116.811 69.1396 119.132 65.699C121.77 61.7831 121.792 57.851 122.157 53.3289L122.944 43.1598L124.762 20.4459L125.309 13.8213C125.855 7.11469 120.721 2.04106 114.009 2.63635L77.7236 5.86949C73.9716 6.20264 70.0776 6.08795 66.4513 7.17476C62.2296 8.43088 59.8976 11.4292 56.872 14.4275L42.6724 28.6271L11.395 59.8771L5.66059 65.6116L4.56832 66.7039C4.08348 67.1887 3.69889 67.7643 3.4365 68.3977C3.17411 69.0312 3.03906 69.7101 3.03906 70.3958C3.03906 71.0814 3.17411 71.7603 3.4365 72.3938C3.69889 73.0273 4.08348 73.6028 4.56832 74.0876L4.73762 74.2897Z"
      fill="#EEF0F1" />
    <path
      d="M116.173 24.1328C116.173 24.3239 116.173 24.5041 116.173 24.6789C116.069 27.191 115.142 29.5991 113.536 31.5329C112.523 32.7714 111.248 33.7694 109.802 34.4547C108.357 35.14 106.777 35.4955 105.177 35.4955C103.577 35.4955 101.997 35.14 100.552 34.4547C99.1062 33.7694 97.831 32.7714 96.8183 31.5329C95.2078 29.6042 94.2753 27.2 94.1641 24.6898C94.1641 24.5096 94.1641 24.3239 94.1641 24.1437C94.1641 23.9635 94.1641 23.6795 94.1641 23.4501C94.5191 17.5026 99.3032 12.7949 105.169 12.7949C111.034 12.7949 115.818 17.5026 116.173 23.4501C116.173 23.6758 116.173 23.9034 116.173 24.1328Z"
      fill="white" />
    <path
      d="M105.143 36.2838C97.8631 36.2838 91.9375 30.2107 91.9375 22.7395C91.9375 15.2684 97.8631 9.19531 105.143 9.19531C112.423 9.19531 118.354 15.2684 118.354 22.7395C118.354 30.2107 112.434 36.2838 105.143 36.2838ZM105.143 13.5644C100.272 13.5644 96.3066 17.6823 96.3066 22.7395C96.3066 27.7968 100.272 31.9147 105.143 31.9147C110.015 31.9147 113.985 27.7968 113.985 22.7395C113.985 17.6823 110.015 13.5699 105.143 13.5699V13.5644Z"
      fill="#CCD1D5" />
    <path opacity="0.5"
      d="M68.2133 5.7168L74.3027 8.37649L8.29644 74.2845L3.92188 69.9099L68.2133 5.7168Z"
      fill="#F6F6F7" />
    <path
      d="M72.2278 19.9437C71.9408 19.944 71.6566 19.8876 71.3914 19.778C71.1262 19.6684 70.8852 19.5075 70.6822 19.3047L68.9455 17.568C68.5782 17.1521 68.3829 16.6119 68.3994 16.0572C68.4159 15.5025 68.6428 14.9749 69.0342 14.5815C69.4255 14.188 69.9519 13.9583 70.5065 13.9388C71.0611 13.9194 71.6023 14.1118 72.0202 14.4769L73.757 16.2136C74.0628 16.5191 74.2712 16.9085 74.3556 17.3325C74.44 17.7565 74.3968 18.196 74.2313 18.5954C74.0658 18.9948 73.7855 19.3361 73.426 19.5761C73.0664 19.8161 72.6437 19.9441 72.2114 19.9437H72.2278Z"
      fill="#CCD1D5" />
    <path
      d="M103.24 50.9483C102.953 50.9486 102.669 50.8922 102.404 50.7826C102.139 50.673 101.898 50.5121 101.695 50.3093L98.1174 46.7321C97.9144 46.5292 97.7534 46.2882 97.6436 46.023C97.5337 45.7578 97.4772 45.4736 97.4772 45.1866C97.4772 44.8995 97.5337 44.6153 97.6436 44.3501C97.7534 44.0849 97.9144 43.844 98.1174 43.641C98.3203 43.438 98.5613 43.277 98.8265 43.1672C99.0917 43.0573 99.3759 43.0008 99.6629 43.0008C99.95 43.0008 100.234 43.0573 100.499 43.1672C100.765 43.277 101.006 43.438 101.209 43.641L104.797 47.2182C105.103 47.5237 105.311 47.9131 105.395 48.3371C105.48 48.7611 105.436 49.2006 105.271 49.6C105.105 49.9994 104.825 50.3407 104.466 50.5807C104.106 50.8207 103.683 50.9487 103.251 50.9483H103.24ZM92.9072 40.6154C92.6202 40.6156 92.336 40.5593 92.0709 40.4497C91.8057 40.34 91.5647 40.1792 91.3616 39.9764L87.7844 36.3992C87.5565 36.2025 87.3716 35.9609 87.2415 35.6894C87.1113 35.4179 87.0387 35.1225 87.0282 34.8216C87.0176 34.5207 87.0694 34.2209 87.1802 33.941C87.291 33.661 87.4585 33.407 87.6722 33.1949C87.8858 32.9828 88.141 32.8171 88.4217 32.7083C88.7024 32.5994 89.0026 32.5498 89.3034 32.5625C89.6042 32.5752 89.8991 32.6499 90.1696 32.7819C90.4402 32.914 90.6805 33.1005 90.8756 33.3299L94.4528 36.9071C94.7586 37.2126 94.967 37.602 95.0514 38.026C95.1358 38.45 95.0926 38.8895 94.9271 39.2889C94.7616 39.6883 94.4813 40.0296 94.1218 40.2696C93.7622 40.5096 93.3395 40.6376 92.9072 40.6372V40.6154ZM82.5743 30.277C82.2873 30.2772 82.0031 30.2209 81.7379 30.1113C81.4727 30.0016 81.2317 29.8408 81.0287 29.638L77.4515 26.0608C77.0394 25.6516 76.8067 25.0955 76.8047 24.5148C76.8027 23.934 77.0314 23.3763 77.4406 22.9642C77.8498 22.5521 78.4059 22.3194 78.9866 22.3174C79.5673 22.3153 80.1251 22.5441 80.5372 22.9533L84.1144 26.5305C84.4202 26.836 84.6286 27.2254 84.713 27.6494C84.7974 28.0734 84.7542 28.5129 84.5887 28.9123C84.4232 29.3117 84.1429 29.653 83.7834 29.893C83.4238 30.133 83.0011 30.2609 82.5688 30.2606L82.5743 30.277Z"
      fill="#CCD1D5" />
    <path
      d="M111.735 59.441C111.448 59.4413 111.164 59.3849 110.899 59.2753C110.633 59.1657 110.392 59.0048 110.189 58.802L108.453 57.0653C108.043 56.6554 107.812 56.0995 107.812 55.5198C107.813 54.94 108.043 54.3841 108.453 53.9742C108.863 53.5643 109.419 53.334 109.998 53.334C110.578 53.334 111.134 53.5643 111.544 53.9742L113.281 55.7109C113.586 56.0164 113.795 56.4058 113.879 56.8298C113.964 57.2538 113.92 57.6933 113.755 58.0927C113.589 58.4921 113.309 58.8334 112.95 59.0734C112.59 59.3134 112.167 59.4414 111.735 59.441Z"
      fill="#CCD1D5" />
    <path
      d="M117.115 30.4895C110.796 30.4895 104.619 27.7042 98.9887 25.1647C97.9838 24.7114 96.9898 24.2635 96.0231 23.843C95.4994 23.6075 95.0895 23.1754 94.882 22.64C94.6745 22.1046 94.6861 21.509 94.9144 20.9821C95.1427 20.4553 95.5692 20.0394 96.1017 19.8246C96.6342 19.6098 97.2299 19.6133 97.7598 19.8344C98.7484 20.2603 99.7587 20.7191 100.785 21.1833C108.038 24.4601 115.531 27.8407 122.533 25.1374L134.99 20.2822C135.26 20.1656 135.55 20.1046 135.844 20.1027C136.137 20.1009 136.428 20.1583 136.699 20.2715C136.97 20.3847 137.216 20.5514 137.421 20.7616C137.626 20.9717 137.787 21.2211 137.893 21.4948C138 21.7685 138.05 22.0608 138.041 22.3544C138.032 22.6479 137.964 22.9366 137.841 23.2032C137.717 23.4698 137.542 23.7089 137.324 23.9061C137.106 24.1033 136.851 24.2546 136.574 24.3509L124.111 29.2061C121.879 30.0655 119.507 30.5007 117.115 30.4895Z"
      fill="#CCD1D5" />
    <path
      d="M41.5055 57.736C55.2595 57.736 66.4094 46.5666 66.4094 32.7884C66.4094 19.0102 55.2595 7.84082 41.5055 7.84082C27.7514 7.84082 16.6016 19.0102 16.6016 32.7884C16.6016 46.5666 27.7514 57.736 41.5055 57.736Z"
      fill="#B7BCC2" />
    <path
      d="M42.9441 81.2208C42.5118 81.2212 42.0891 81.0932 41.7295 80.8532C41.3699 80.6132 41.0897 80.2719 40.9242 79.8725C40.7587 79.4731 40.7154 79.0336 40.7999 78.6096C40.8843 78.1856 41.0927 77.7962 41.3985 77.4907L58.7166 60.1617C58.9172 59.9502 59.1582 59.7809 59.4253 59.6639C59.6924 59.547 59.9802 59.4847 60.2717 59.4807C60.5633 59.4767 60.8527 59.5311 61.1229 59.6407C61.3931 59.7503 61.6386 59.9129 61.845 60.1189C62.0513 60.3249 62.2144 60.5702 62.3245 60.8402C62.4346 61.1102 62.4895 61.3995 62.486 61.691C62.4826 61.9826 62.4207 62.2705 62.3043 62.5378C62.1878 62.8051 62.0189 63.0464 61.8077 63.2474L44.4897 80.5819C44.2866 80.7847 44.0456 80.9455 43.7804 81.0551C43.5152 81.1648 43.2311 81.2211 42.9441 81.2208Z"
      fill="#CCD1D5" />
    <path
      d="M50.2488 88.4903C49.8165 88.4906 49.3938 88.3627 49.0342 88.1227C48.6746 87.8826 48.3944 87.5413 48.2289 87.1419C48.0634 86.7426 48.0201 86.3031 48.1046 85.8791C48.189 85.4551 48.3973 85.0657 48.7032 84.7601L77.5229 55.9186C77.7236 55.707 77.9646 55.5378 78.2317 55.4208C78.4987 55.3038 78.7866 55.2415 79.0781 55.2375C79.3697 55.2335 79.6591 55.2879 79.9293 55.3976C80.1995 55.5072 80.445 55.6698 80.6513 55.8758C80.8577 56.0818 81.0207 56.327 81.1308 56.597C81.2409 56.867 81.2959 57.1563 81.2924 57.4479C81.2889 57.7394 81.2271 58.0274 81.1106 58.2947C80.9941 58.562 80.8253 58.8032 80.6141 59.0043L51.7943 87.8677C51.3816 88.2713 50.826 88.4951 50.2488 88.4903Z"
      fill="#CCD1D5" />
    <path
      d="M57.5378 95.7969C57.1055 95.7973 56.6828 95.6693 56.3233 95.4293C55.9637 95.1893 55.6834 94.848 55.5179 94.4486C55.3525 94.0492 55.3092 93.6097 55.3936 93.1857C55.4781 92.7617 55.6864 92.3723 55.9923 92.0668L84.812 63.2252C85.0126 63.0136 85.2536 62.8444 85.5207 62.7274C85.7878 62.6105 86.0756 62.5481 86.3672 62.5441C86.6587 62.5402 86.9481 62.5946 87.2183 62.7042C87.4885 62.8138 87.734 62.9764 87.9404 63.1824C88.1468 63.3884 88.3098 63.6336 88.4199 63.9036C88.53 64.1736 88.5849 64.463 88.5815 64.7545C88.578 65.0461 88.5162 65.334 88.3997 65.6013C88.2832 65.8686 88.1144 66.1099 87.9031 66.3109L59.0834 95.1525C58.8808 95.3563 58.64 95.5181 58.3748 95.6287C58.1096 95.7393 57.8252 95.7964 57.5378 95.7969Z"
      fill="#CCD1D5" />
    <path
      d="M119.268 56.9229C121.851 59.5115 122.605 62.9304 120.95 64.5961L59.5968 125.764L54.9219 121.072L119.268 56.9229Z"
      fill="#E0E3E5" />
    <g opacity="0.7">
      <path
        d="M37.9999 98.3973C37.5762 98.397 37.1691 98.2326 36.864 97.9385L32.0689 93.3236C31.9065 93.1763 31.7753 92.9979 31.6831 92.799C31.5909 92.6 31.5396 92.3846 31.5322 92.1654C31.5248 91.9463 31.5614 91.7279 31.64 91.5232C31.7185 91.3184 31.8374 91.1316 31.9895 90.9736C32.1416 90.8157 32.3238 90.6899 32.5254 90.6037C32.727 90.5174 32.9439 90.4726 33.1632 90.4717C33.3825 90.4708 33.5997 90.514 33.802 90.5986C34.0042 90.6832 34.1875 90.8076 34.3408 90.9643L39.1359 95.5901C39.371 95.8167 39.533 96.1084 39.6012 96.4277C39.6694 96.7471 39.6406 97.0795 39.5185 97.3823C39.3964 97.6852 39.1866 97.9446 38.9161 98.1274C38.6455 98.3102 38.3265 98.408 37.9999 98.4082V98.3973Z"
        fill="white" />
      <path
        d="M44.6216 104.765C44.1979 104.765 43.7907 104.6 43.4856 104.306L40.897 101.811C40.599 101.506 40.4314 101.097 40.4297 100.671C40.428 100.245 40.5924 99.8352 40.8879 99.5283C41.1835 99.2214 41.5869 99.0417 42.0128 99.0273C42.4386 99.0129 42.8533 99.165 43.1689 99.4512L45.763 101.947C45.9981 102.174 46.1602 102.465 46.2283 102.785C46.2965 103.104 46.2677 103.436 46.1456 103.739C46.0236 104.042 45.8138 104.302 45.5432 104.484C45.2726 104.667 44.9536 104.765 44.6271 104.765H44.6216Z"
        fill="white" />
    </g>
    <path opacity="0.7"
      d="M29.3553 88.4048C30.1605 87.568 30.1349 86.237 29.2982 85.4318C28.4614 84.6265 27.1304 84.6521 26.3252 85.4889C25.5199 86.3256 25.5455 87.6567 26.3822 88.4619C27.219 89.2671 28.5501 89.2415 29.3553 88.4048Z"
      fill="white" />
    <path
      d="M57.5469 127.107C56.5729 127.106 55.6087 126.913 54.7097 126.538C53.8108 126.163 52.995 125.614 52.3094 124.922L2.66544 75.2783C1.27874 73.888 0.5 72.0045 0.5 70.0408C0.5 68.0772 1.27874 66.1937 2.66544 64.8033L54.9582 12.4942C55.4115 12.0409 55.8484 11.5931 56.2744 11.1452C58.7648 8.57291 61.3371 5.91322 65.455 4.68987C68.3495 3.82697 71.2877 3.66313 74.1331 3.50475C75.1762 3.44467 76.1648 3.39006 77.1533 3.30268L113.444 0.0749968C115.281 -0.127125 117.14 0.0805372 118.887 0.683036C120.634 1.28553 122.226 2.26788 123.548 3.55936C124.848 4.86751 125.843 6.44772 126.459 8.18627C127.076 9.92482 127.3 11.7785 127.114 13.6138L123.946 53.1597C123.908 53.6184 123.875 54.0663 123.843 54.5141C123.537 58.6647 123.253 62.5806 120.566 66.5783C118.698 69.3472 116.317 71.6137 114.012 73.8037C113.28 74.5028 112.521 75.2237 111.828 75.9391L107.502 80.2645L95.9077 91.859C95.4978 92.269 94.9418 92.4992 94.3621 92.4992C93.7824 92.4992 93.2264 92.269 92.8165 91.859C92.4066 91.4491 92.1763 90.8932 92.1763 90.3135C92.1763 89.7338 92.4066 89.1778 92.8165 88.7679L104.411 77.1734L108.736 72.848C109.49 72.0943 110.266 71.357 111.019 70.6634C113.248 68.5444 115.356 66.5401 116.961 64.1644C119.009 61.1278 119.228 58.0804 119.512 54.2246C119.545 53.7713 119.577 53.3071 119.616 52.8429L122.783 13.297C122.912 12.0958 122.774 10.8809 122.378 9.73937C121.983 8.59784 121.34 7.55795 120.495 6.6942C119.622 5.85394 118.574 5.21777 117.425 4.83152C116.277 4.44526 115.057 4.31854 113.854 4.46049L77.541 7.66086C76.4815 7.75371 75.4111 7.81378 74.3734 7.87386C71.6427 8.02677 69.1032 8.16877 66.7002 8.88421C63.68 9.78534 61.703 11.8279 59.4147 14.1927C58.9669 14.6569 58.5136 15.1211 58.0439 15.5908L5.73474 67.8945C5.16711 68.4646 4.84843 69.2363 4.84843 70.0408C4.84843 70.8453 5.16711 71.617 5.73474 72.1871L5.92042 72.3728L55.4006 121.853C55.9709 122.422 56.7438 122.742 57.5496 122.742C58.3555 122.742 59.1284 122.422 59.6987 121.853L60.791 120.761C63.691 117.861 65.9301 115.764 68.0983 113.732C70.2665 111.7 72.4674 109.647 75.3019 106.801C75.7118 106.391 76.2677 106.161 76.8474 106.161C77.4271 106.161 77.9831 106.391 78.393 106.801C78.8029 107.211 79.0332 107.767 79.0332 108.347C79.0332 108.927 78.8029 109.483 78.393 109.893C75.493 112.793 73.2538 114.89 71.0857 116.921C68.9175 118.953 66.7166 121.006 63.8821 123.852L62.7898 124.944C62.1016 125.632 61.2841 126.178 60.3843 126.549C59.4845 126.92 58.5202 127.11 57.5469 127.107Z"
      fill="#CCD1D5" />
    <path
      d="M37.4945 53.6032C51.2727 53.6032 62.4421 42.4338 62.4421 28.6556C62.4421 14.8774 51.2727 3.70801 37.4945 3.70801C23.7163 3.70801 12.5469 14.8774 12.5469 28.6556C12.5469 42.4338 23.7163 53.6032 37.4945 53.6032Z"
      fill="white" />
    <path opacity="0.5"
      d="M62.3327 27.9333C62.3313 31.5482 61.5444 35.1197 60.0263 38.4005C58.5082 41.6812 56.2953 44.5929 53.5407 46.9339C50.7861 49.2748 47.5556 50.9892 44.073 51.9583C40.5903 52.9274 36.9387 53.128 33.3708 52.5464C29.8029 51.9647 26.4041 50.6146 23.4096 48.5895C20.4151 46.5644 17.8965 43.9127 16.0281 40.8181C14.1597 37.7234 12.9862 34.2596 12.5887 30.6666C12.1913 27.0735 12.5795 23.437 13.7264 20.0088C15.7744 31.5323 26.3804 41.9089 37.3851 41.9089C48.3898 41.9089 58.4333 33.5694 61.0438 20.0088C61.9008 22.5628 62.3361 25.2393 62.3327 27.9333Z"
      fill="#EEF0F1" />
    <path
      d="M62.119 27.5503C62.168 30.8571 61.5589 34.1407 60.3273 37.2101C59.0956 40.2794 57.266 43.0732 54.9448 45.429C52.6236 47.7848 49.8572 49.6556 46.8064 50.9325C43.7556 52.2094 40.4814 52.867 37.1742 52.867C33.8669 52.867 30.5927 52.2094 27.5419 50.9325C24.4912 49.6556 21.7247 47.7848 19.4035 45.429C17.0823 43.0732 15.2527 40.2794 14.0211 37.2101C12.7894 34.1407 12.1804 30.8571 12.2293 27.5503C12.2291 26.4545 12.3002 25.3599 12.4423 24.2734C13.2316 30.2748 16.1759 35.7846 20.7265 39.7759C25.2772 43.7673 31.1238 45.968 37.1769 45.968C43.23 45.968 49.0766 43.7673 53.6273 39.7759C58.1779 35.7846 61.1222 30.2748 61.9115 24.2734C62.0517 25.3601 62.121 26.4546 62.119 27.5503Z"
      fill="#E0E3E5" />
    <path
      d="M26.8203 25.7537V21.7505C26.8203 20.4361 27.1844 19.4713 27.9126 18.8559C28.7705 18.2061 29.8307 17.8811 30.9054 17.9384C31.9824 17.8826 33.0451 18.2052 33.9092 18.8505C34.6629 19.4622 35.0397 20.4252 35.0397 21.7396V25.7427C35.0397 27.0608 34.6647 28.0256 33.9147 28.6373C33.0527 29.2833 31.9922 29.6078 30.9164 29.5548C29.8405 29.615 28.7781 29.2918 27.9181 28.6427C27.1862 28.0311 26.8203 27.068 26.8203 25.7537ZM29.551 25.7537C29.551 26.6566 30.017 27.1081 30.9491 27.1081C31.8812 27.1081 32.3545 26.6566 32.3691 25.7537V21.7396C32.3691 20.8366 31.8939 20.3851 30.9437 20.3851C30.7576 20.3567 30.5675 20.3717 30.3882 20.4291C30.2089 20.4865 30.0454 20.5847 29.9104 20.7159C29.7755 20.8472 29.6728 21.0079 29.6105 21.1855C29.5481 21.3631 29.5277 21.5528 29.551 21.7396V25.7537ZM31.0256 38.3531C31.0278 38.1629 31.0746 37.9758 31.1621 37.8069L40.8615 17.4906C40.959 17.2675 41.1232 17.08 41.3314 16.9538C41.5397 16.8277 41.7819 16.7691 42.0248 16.7861C42.4429 16.7874 42.8472 16.9364 43.1662 17.2066C43.3384 17.3313 43.478 17.4957 43.573 17.6859C43.6681 17.876 43.7159 18.0863 43.7124 18.2989C43.719 18.487 43.6816 18.674 43.6031 18.845L33.8546 39.1395C33.744 39.3702 33.5653 39.5614 33.3427 39.6874C33.12 39.8134 32.8641 39.8681 32.6094 39.844C32.399 39.8496 32.1898 39.8111 31.9952 39.7312C31.8005 39.6512 31.6247 39.5316 31.4789 39.3798C31.3388 39.2475 31.2265 39.0885 31.1486 38.9122C31.0708 38.7359 31.029 38.5458 31.0256 38.3531ZM39.5781 34.8196V30.8164C39.5781 29.502 39.9422 28.5372 40.6704 27.9218C41.5283 27.272 42.5885 26.947 43.6632 27.0043C44.7402 26.9485 45.8029 27.2711 46.667 27.9164C47.4207 28.5281 47.7975 29.4911 47.7975 30.8055V34.8086C47.7975 36.1267 47.4225 37.0915 46.6724 37.7032C45.809 38.3504 44.7464 38.675 43.6687 38.6207C42.597 38.6739 41.541 38.347 40.6868 37.6977C39.9477 37.097 39.5781 36.1376 39.5781 34.8196ZM42.3088 34.8196C42.287 35.0044 42.3079 35.1917 42.3698 35.3672C42.4317 35.5427 42.5329 35.7016 42.6658 35.8319C42.7987 35.9621 42.9597 36.0602 43.1364 36.1186C43.313 36.1769 43.5007 36.194 43.6851 36.1685C44.6353 36.1685 45.1087 35.7171 45.105 34.8141V30.8055C45.105 29.9025 44.6299 29.451 43.6796 29.451C42.7293 29.451 42.2651 29.9025 42.287 30.8055L42.3088 34.8196Z"
      fill="#CCD1D5" />
    <path
      d="M37.2603 54.8034C31.8933 54.8056 26.6463 53.216 22.1829 50.2357C17.7195 47.2555 14.2402 43.0185 12.1851 38.0606C10.13 33.1027 9.5915 27.6467 10.6376 22.3827C11.6837 17.1187 14.2675 12.2832 18.0621 8.48783C21.8567 4.69246 26.6917 2.10771 31.9555 1.06054C37.2192 0.0133758 42.6754 0.550824 47.6337 2.60491C52.5919 4.65899 56.8297 8.13744 59.8108 12.6003C62.792 17.0631 64.3826 22.3098 64.3815 27.6767C64.3729 34.8675 61.5128 41.7615 56.4287 46.8467C51.3445 51.9319 44.4511 54.7933 37.2603 54.8034ZM37.2603 4.93003C32.757 4.92787 28.3543 6.26147 24.6091 8.76212C20.864 11.2628 17.9447 14.8181 16.2206 18.9783C14.4965 23.1384 14.0452 27.7165 14.9236 32.1333C15.802 36.55 17.9707 40.607 21.1554 43.7909C24.3401 46.9748 28.3976 49.1426 32.8145 50.0199C37.2315 50.8973 41.8095 50.4448 45.9692 48.7197C50.129 46.9947 53.6836 44.0745 56.1834 40.3288C58.6831 36.583 60.0157 32.18 60.0124 27.6767C60.0023 21.6461 57.6018 15.8654 53.337 11.6016C49.0722 7.33782 43.2909 4.93869 37.2603 4.93003Z"
      fill="#CCD1D5" />
    <path
      d="M82.3217 105.152C81.8925 105.152 81.4729 105.024 81.1155 104.787C80.758 104.549 80.4786 104.211 80.3119 103.816C80.1453 103.42 80.0989 102.984 80.1786 102.562C80.2582 102.141 80.4604 101.752 80.7598 101.444L83.5451 98.5877C83.7434 98.3749 83.9823 98.2038 84.2476 98.0846C84.5129 97.9653 84.7994 97.9003 85.0902 97.8932C85.3811 97.8862 85.6704 97.9373 85.9412 98.0436C86.212 98.1498 86.4588 98.3091 86.6672 98.5121C86.8756 98.715 87.0414 98.9576 87.1548 99.2254C87.2682 99.4933 87.327 99.7812 87.3277 100.072C87.3284 100.363 87.2709 100.651 87.1587 100.92C87.0466 101.188 86.8819 101.431 86.6744 101.635L83.8891 104.491C83.6853 104.701 83.4416 104.867 83.1724 104.981C82.9032 105.094 82.6139 105.153 82.3217 105.152Z"
      fill="#CCD1D5" />
    <path
      d="M89.9366 97.331C89.5068 97.3314 89.0865 97.205 88.7283 96.9677C88.37 96.7304 88.0897 96.3927 87.9224 95.9969C87.7551 95.6011 87.7082 95.1647 87.7877 94.7424C87.8671 94.3201 88.0694 93.9306 88.3691 93.6227L88.4838 93.5025C88.8911 93.1022 89.439 92.8773 90.0101 92.876C90.5812 92.8747 91.1301 93.097 91.5392 93.4955C91.9484 93.8939 92.1852 94.4367 92.199 95.0076C92.2129 95.5786 92.0026 96.1322 91.6132 96.55L91.4985 96.6701C91.2954 96.8788 91.0525 97.0448 90.7843 97.1583C90.516 97.2718 90.2278 97.3305 89.9366 97.331Z"
      fill="#CCD1D5" />
    <path fill-rule="evenodd" clip-rule="evenodd"
      d="M128.332 67.8974C123.438 75.4668 124.393 85.4082 130.639 91.9072C136.785 98.315 146.672 99.3171 153.978 94.2732C155.514 93.2159 156.884 91.9348 158.04 90.4729C159.177 89.0351 160.102 87.4415 160.786 85.7409C162.188 82.2477 162.551 78.4237 161.83 74.7294C161.121 71.0685 159.36 67.6944 156.763 65.0188C154.206 62.3745 150.912 60.5608 147.309 59.8137C143.722 59.0806 139.996 59.4589 136.628 60.8981C133.229 62.355 130.341 64.7918 128.332 67.8974Z"
      stroke="#CCD1D5" stroke-width="6.99396" stroke-linecap="round" stroke-linejoin="round" />
    <path
      d="M183.867 78.1328C185.909 78.1328 187.564 76.4781 187.564 74.436C187.564 72.3944 185.909 70.7392 183.867 70.7392V78.1328ZM174.009 70.7392C171.968 70.7392 170.312 72.3944 170.312 74.436C170.312 76.4781 171.968 78.1328 174.009 78.1328V70.7392ZM183.867 92.9201C185.909 92.9201 187.564 91.2654 187.564 89.2233C187.564 87.1816 185.909 85.5264 183.867 85.5264V92.9201ZM174.009 85.5264C171.968 85.5264 170.312 87.1816 170.312 89.2233C170.312 91.2654 171.968 92.9201 174.009 92.9201V85.5264ZM188.797 63.3458C190.838 63.3458 192.493 61.6906 192.493 59.649C192.493 57.6073 190.838 55.9521 188.797 55.9521V63.3458ZM174.009 55.9521C171.968 55.9521 170.312 57.6073 170.312 59.649C170.312 61.6906 171.968 63.3458 174.009 63.3458V55.9521ZM183.867 70.7392H174.009V78.1328H183.867V70.7392ZM183.867 85.5264H174.009V92.9201H183.867V85.5264ZM188.797 55.9521H174.009V63.3458H188.797V55.9521Z"
      fill="#CCD1D5" />
    <path
      d="M160.21 93.9633C158.56 92.7606 156.247 93.1239 155.045 94.7742C153.843 96.4244 154.206 98.7367 155.856 99.9389L160.21 93.9633ZM167.405 108.353C169.055 109.555 171.368 109.192 172.57 107.542C173.772 105.892 173.409 103.579 171.759 102.377L167.405 108.353ZM155.856 99.9389L167.405 108.353L171.759 102.377L160.21 93.9633L155.856 99.9389Z"
      fill="#CCD1D5" />
  </g>
</svg>
  