<svg width="64" height="46" viewBox="0 0 64 46" fill="none" xmlns="http://www.w3.org/2000/svg">
  <path
    d="M15.1491 29.1532L6.20999 39.3693C6.08343 39.514 5.90695 39.5875 5.72919 39.5875C5.57952 39.5875 5.42986 39.5358 5.30893 39.4298C5.04331 39.1973 5.01649 38.7939 5.2484 38.5288L14.1875 28.3127C14.4194 28.0451 14.8234 28.0202 15.0885 28.2521C15.3542 28.4847 15.381 28.8881 15.1491 29.1532ZM14.0298 34.4795C15.4383 34.4795 16.5838 35.625 16.5838 37.0335C16.5838 38.442 15.4383 39.5875 14.0298 39.5875C12.6212 39.5875 11.4757 38.442 11.4757 37.0335C11.4757 35.625 12.6212 34.4795 14.0298 34.4795ZM14.0298 35.7565C13.3258 35.7565 12.7528 36.3295 12.7528 37.0335C12.7528 37.7375 13.3258 38.3105 14.0298 38.3105C14.7338 38.3105 15.3068 37.7375 15.3068 37.0335C15.3068 36.3295 14.7338 35.7565 14.0298 35.7565ZM6.3677 33.2025C4.95915 33.2025 3.81367 32.057 3.81367 30.6484C3.81367 29.2399 4.95915 28.0944 6.3677 28.0944C7.77624 28.0944 8.92172 29.2399 8.92172 30.6484C8.92172 32.057 7.77624 33.2025 6.3677 33.2025ZM6.3677 31.9254C7.07171 31.9254 7.64471 31.3525 7.64471 30.6484C7.64471 29.9444 7.07171 29.3714 6.3677 29.3714C5.66368 29.3714 5.09068 29.9444 5.09068 30.6484C5.09068 31.3525 5.66368 31.9254 6.3677 31.9254ZM63.9998 44.5135C64.0079 44.8396 63.7684 45.1195 63.4448 45.1619C63.3678 45.1723 59.7035 45.6385 53.0469 45.8647C53.0255 45.8669 53.0061 45.8759 52.9843 45.8759C52.9564 45.8759 52.928 45.873 52.8992 45.8693C50.8003 45.939 48.4174 45.9856 45.7487 45.9857C38.8089 45.9857 29.9993 45.6748 19.6407 44.6814C19.0225 45.4623 18.0874 45.9727 17.0278 45.9727H3.36965C1.51147 45.9727 0 44.4338 0 42.542V17.6495C0 17.5734 0.0136642 17.4979 0.0404815 17.4262C0.979597 14.9072 2.287 12.9167 4.16204 11.1741C3.25677 10.223 2.90572 9.05389 3.2274 8.03944C3.49174 7.20759 4.16651 6.61276 5.03258 6.44751C6.22506 6.22033 7.55966 6.83891 8.74154 8.13789C10.1735 7.7295 11.7244 7.93344 13.037 8.7515C15.084 10.0262 16.6542 11.3912 17.8972 12.9765C18.4974 11.6255 19.6923 9.07509 21.4036 6.07641C21.7428 5.47902 22.382 5.10805 23.0704 5.10805H26.8638C26.8332 4.89773 26.7993 4.68817 26.7993 4.46955C26.7993 2.00529 28.8046 0 31.2688 0C33.7331 0 35.739 2.00529 35.739 4.46955C35.739 4.68511 35.7152 4.89722 35.685 5.10805H37.0799C37.0493 4.89773 37.0154 4.68817 37.0154 4.46955C37.0154 2.00529 39.0207 0 41.4849 0C43.9492 0 45.9551 2.00529 45.9551 4.46955C45.9551 4.68511 45.9313 4.89722 45.9011 5.10805H47.296C47.2654 4.89773 47.2315 4.68817 47.2315 4.46955C47.2315 2.00529 49.2368 0 51.701 0C54.1653 0 56.1712 2.00529 56.1712 4.46955C56.1712 4.68511 56.1474 4.89722 56.1172 5.10805H60.0022C60.3221 5.10805 60.5921 5.34443 60.6351 5.66113C60.6644 5.87937 63.5869 27.6835 63.9998 44.5135ZM48.5731 5.10818H54.8234C54.866 4.899 54.8942 4.68664 54.8942 4.46967C54.8942 2.70944 53.4619 1.27714 51.701 1.27714C49.9401 1.27714 48.5085 2.70944 48.5085 4.46967C48.5085 4.6883 48.531 4.90181 48.5731 5.10818ZM38.357 5.10818H44.6073C44.6499 4.899 44.6781 4.68664 44.6781 4.46967C44.6781 2.70944 43.2458 1.27714 41.4849 1.27714C39.724 1.27714 38.2924 2.70944 38.2924 4.46967C38.2924 4.6883 38.3149 4.90181 38.357 5.10818ZM28.1409 5.10818H34.3912C34.4338 4.899 34.462 4.68664 34.462 4.46967C34.462 2.70944 33.0297 1.27714 31.2688 1.27714C29.5079 1.27714 28.0763 2.70944 28.0763 4.46967C28.0763 4.6883 28.0988 4.90181 28.1409 5.10818ZM5.12555 10.3378C5.80517 9.79086 6.53946 9.26269 7.36032 8.7515C7.40067 8.72634 7.44396 8.70948 7.4847 8.6856C6.7139 7.95221 5.91896 7.58163 5.27138 7.70218C4.86797 7.77892 4.56673 8.04327 4.44452 8.42611C4.26433 8.99477 4.50939 9.69942 5.09988 10.3118L5.12555 10.3378ZM19.1203 17.7654C17.809 14.3079 15.8436 12.0039 12.3624 9.83517C11.028 9.0046 9.36932 9.0046 8.03497 9.83517C7.29264 10.2976 6.63242 10.7694 6.01958 11.2541C6.81363 12.063 7.52595 12.7715 8.1467 13.3771C8.74115 12.9974 9.44236 12.7701 10.1986 12.7701C12.3112 12.7701 14.0296 14.4886 14.0296 16.6012C14.0296 18.7137 12.3112 20.4322 10.1986 20.4322C8.08605 20.4322 6.36757 18.7137 6.36757 16.6012C6.36757 15.7069 6.68823 14.8938 7.20376 14.2412C6.57215 13.6245 5.85025 12.9051 5.04663 12.0855C3.33211 13.6683 2.15228 15.4575 1.27701 17.7654V42.5419C1.27701 43.7298 2.21613 44.6956 3.36965 44.6956H17.0277C18.1812 44.6956 19.1203 43.7298 19.1203 42.5419V17.7654ZM8.11989 15.1275C7.82324 15.5447 7.64471 16.0513 7.64471 16.6013C7.64471 18.0098 8.79019 19.1553 10.1987 19.1553C11.6073 19.1553 12.7528 18.0098 12.7528 16.6013C12.7528 15.1928 11.6073 14.0473 10.1987 14.0473C9.8058 14.0473 9.43789 14.1438 9.1051 14.3028C10.1789 15.327 10.8053 15.8831 10.8167 15.8936C11.081 16.1268 11.1067 16.5302 10.8734 16.7946C10.7475 16.938 10.571 17.011 10.3945 17.011C10.2442 17.011 10.0934 16.9586 9.97232 16.8513C9.95993 16.8406 9.27622 16.233 8.11989 15.1275ZM46.4556 44.7068C51.9482 22.9272 57.4778 9.81729 59.009 6.38507H49.1633C49.7467 7.15574 50.6623 7.66208 51.701 7.66208C52.054 7.66208 52.3395 7.94762 52.3395 8.30059C52.3395 8.65355 52.054 8.93909 51.701 8.93909C49.9248 8.93909 48.4001 7.88964 47.6798 6.38507H38.9472C39.5306 7.15574 40.4462 7.66208 41.4849 7.66208C41.8379 7.66208 42.1234 7.94762 42.1234 8.30059C42.1234 8.65355 41.8379 8.93909 41.4849 8.93909C39.7087 8.93909 38.184 7.88964 37.4637 6.38507H28.7311C29.3145 7.15574 30.2301 7.66208 31.2688 7.66208C31.6218 7.66208 31.9073 7.94762 31.9073 8.30059C31.9073 8.65355 31.6218 8.93909 31.2688 8.93909C29.4926 8.93909 27.9679 7.88964 27.2476 6.38507H23.0705C22.8436 6.38507 22.6247 6.51162 22.5131 6.70802C20.4397 10.3418 19.141 13.2951 18.7586 14.1968C19.3817 15.1795 19.9146 16.2396 20.3569 17.426C20.3837 17.4978 20.3973 17.5731 20.3973 17.6492V42.5416C20.3973 42.8609 20.3404 43.1641 20.2599 43.4575C30.7185 44.4427 39.5603 44.728 46.4556 44.7068ZM62.7077 43.9622C62.3334 30.47 60.3994 14.0008 59.659 8.08617C57.6642 12.7354 52.7161 25.1847 47.7747 44.6994C49.4596 44.6845 51.0135 44.6513 52.4399 44.607C53.111 40.5561 55.4203 27.2781 55.4447 27.1384C55.5059 26.7911 55.8382 26.5605 56.183 26.6184C56.5309 26.679 56.7635 27.0095 56.703 27.3567C56.6791 27.4942 54.4615 40.2442 53.7419 44.5624C58.4388 44.3846 61.5082 44.0924 62.7077 43.9622ZM24.8844 17.8783H29.9924C30.3454 17.8783 30.6309 17.5928 30.6309 17.2398C30.6309 16.8868 30.3454 16.6013 29.9924 16.6013H24.8844C24.5314 16.6013 24.2459 16.8868 24.2459 17.2398C24.2459 17.5928 24.5314 17.8783 24.8844 17.8783ZM35.1005 17.8783H40.2085C40.5615 17.8783 40.847 17.5928 40.847 17.2398C40.847 16.8868 40.5615 16.6013 40.2085 16.6013H35.1005C34.7475 16.6013 34.462 16.8868 34.462 17.2398C34.462 17.5928 34.7475 17.8783 35.1005 17.8783ZM45.3166 17.8783H50.4246C50.7776 17.8783 51.0632 17.5928 51.0632 17.2398C51.0632 16.8868 50.7776 16.6013 50.4246 16.6013H45.3166C44.9636 16.6013 44.6781 16.8868 44.6781 17.2398C44.6781 17.5928 44.9636 17.8783 45.3166 17.8783ZM37.6545 24.2634H32.5465C32.1935 24.2634 31.908 24.5489 31.908 24.9019C31.908 25.2548 32.1935 25.5404 32.5465 25.5404H37.6545C38.0075 25.5404 38.293 25.2548 38.293 24.9019C38.293 24.5489 38.0075 24.2634 37.6545 24.2634ZM27.4384 24.2634H22.3304C21.9774 24.2634 21.6919 24.5489 21.6919 24.9019C21.6919 25.2548 21.9774 25.5404 22.3304 25.5404H27.4384C27.7914 25.5404 28.0769 25.2548 28.0769 24.9019C28.0769 24.5489 27.7914 24.2634 27.4384 24.2634ZM42.7626 25.5404H47.8706C48.2236 25.5404 48.5091 25.2548 48.5091 24.9019C48.5091 24.5489 48.2236 24.2634 47.8706 24.2634H42.7626C42.4096 24.2634 42.1241 24.5489 42.1241 24.9019C42.1241 25.2548 42.4096 25.5404 42.7626 25.5404ZM35.1005 31.9254H29.9924C29.6395 31.9254 29.3539 32.211 29.3539 32.564C29.3539 32.9169 29.6395 33.2025 29.9924 33.2025H35.1005C35.4535 33.2025 35.739 32.9169 35.739 32.564C35.739 32.211 35.4535 31.9254 35.1005 31.9254ZM45.3166 31.9254H40.2085C39.8556 31.9254 39.57 32.211 39.57 32.564C39.57 32.9169 39.8556 33.2025 40.2085 33.2025H45.3166C45.6696 33.2025 45.9551 32.9169 45.9551 32.564C45.9551 32.211 45.6696 31.9254 45.3166 31.9254ZM59.2677 30.6565C58.9204 30.7157 58.6865 31.0462 58.7464 31.3934C59.0726 33.2953 59.2353 36.105 59.259 40.2352C59.2609 40.5863 59.5465 40.87 59.8975 40.87H59.9012C60.2536 40.8681 60.5378 40.5807 60.536 40.2278C60.5118 36.0258 60.3433 33.15 60.0048 31.1778C59.9462 30.8304 59.6149 30.5979 59.2677 30.6565Z"
    fill="#CCD1D5" />
</svg>
  