<svg width="114" height="20" viewBox="0 0 114 20" fill="none" xmlns="http://www.w3.org/2000/svg">
<rect x="9.00928" y="0.862061" width="5.66297" height="18.2759" rx="2.83148" fill="#385BD2" fill-opacity="0.85"/>
<rect x="16.4741" y="0.862061" width="5.40556" height="5.40556" rx="2.70278" fill="#00A0FC" fill-opacity="0.85"/>
<rect y="0.86203" width="14.6722" height="5.40556" rx="2.70278" fill="#006CFC" fill-opacity="0.85"/>
<path fill-rule="evenodd" clip-rule="evenodd" d="M48.026 15.5433C47.6662 14.9175 47.4862 14.1117 47.4862 13.126C47.4862 12.0933 47.6427 11.3031 47.9556 10.7555C48.2686 10.2079 48.7692 9.93407 49.4577 9.93407C49.7706 9.93407 50.0679 9.98101 50.3495 10.0749C50.6312 10.1531 50.8815 10.2548 51.1006 10.38V16.3882C50.8815 16.4195 50.6703 16.443 50.4669 16.4587C50.2635 16.4743 50.0444 16.4821 49.8097 16.4821C48.9961 16.4821 48.4016 16.1692 48.026 15.5433ZM52.0394 18.8056C52.806 18.6961 53.4554 18.5553 53.9873 18.3832V2.42377L51.1006 2.91663V7.93915C50.8189 7.78268 50.4904 7.66533 50.1148 7.5871C49.7393 7.49322 49.356 7.44628 48.9648 7.44628C47.5097 7.44628 46.4066 7.97044 45.6556 9.01875C44.9202 10.0514 44.5525 11.4674 44.5525 13.2668C44.5525 15.0348 44.9906 16.4274 45.8668 17.4444C46.7587 18.4614 48.0652 18.9699 49.7863 18.9699C50.5217 18.9699 51.2727 18.9151 52.0394 18.8056ZM107.804 11.0137C107.522 11.3735 107.241 11.7178 106.959 12.0463V2.42377L104.049 2.91663V18.7117H106.959V13.5015C107.256 13.7831 107.577 14.143 107.921 14.5811C108.281 15.0035 108.633 15.4573 108.978 15.9423C109.322 16.4117 109.643 16.8968 109.94 17.3974C110.253 17.8825 110.503 18.3206 110.691 18.7117H114C113.781 18.2736 113.484 17.773 113.108 17.2097C112.748 16.6464 112.349 16.0831 111.911 15.5199C111.473 14.9566 111.027 14.4168 110.573 13.9005C110.12 13.3685 109.697 12.9147 109.306 12.5392C109.619 12.195 109.963 11.8195 110.339 11.4127C110.73 11.0059 111.113 10.5834 111.489 10.1453C111.88 9.7072 112.255 9.27692 112.615 8.85447C112.975 8.43201 113.296 8.04085 113.578 7.68098H110.104C109.916 8.00956 109.697 8.3616 109.447 8.73712C109.197 9.09699 108.931 9.4725 108.649 9.86366C108.383 10.2548 108.101 10.6382 107.804 11.0137ZM94.2148 7.6342C93.4638 7.75937 92.8301 7.89237 92.3137 8.03319V18.7119H95.2005V10.0516C95.4352 10.0203 95.6543 9.99682 95.8577 9.98117C96.0767 9.96553 96.2958 9.9577 96.5148 9.9577C97.2346 9.9577 97.7118 10.1846 97.9465 10.6383C98.1812 11.0921 98.2985 11.8353 98.2985 12.8679V18.7119H101.185V12.4924C101.185 11.7414 101.115 11.0608 100.974 10.4506C100.833 9.82471 100.591 9.29273 100.246 8.85463C99.9179 8.40088 99.4642 8.05666 98.8853 7.82196C98.3063 7.57162 97.5788 7.44645 96.7026 7.44645C95.8107 7.44645 94.9815 7.50903 94.2148 7.6342ZM85.7655 4.51277C85.7655 5.07604 85.5856 5.52196 85.2257 5.85054C84.8658 6.17912 84.4356 6.3434 83.9349 6.3434C83.4342 6.3434 83.0039 6.17912 82.6441 5.85054C82.2998 5.52196 82.1277 5.07604 82.1277 4.51277C82.1277 3.93385 82.2998 3.4801 82.6441 3.15152C83.0039 2.82295 83.4342 2.65866 83.9349 2.65866C84.4356 2.65866 84.8658 2.82295 85.2257 3.15152C85.5856 3.4801 85.7655 3.93385 85.7655 4.51277ZM90.0605 18.2425C89.4659 18.5242 88.9026 18.7119 88.3707 18.8058C87.8543 18.9153 87.3771 18.9701 86.939 18.9701C86.188 18.9701 85.5543 18.8606 85.038 18.6415C84.5373 18.4225 84.1305 18.1095 83.8175 17.7027C83.5203 17.2803 83.309 16.7718 83.1839 16.1772C83.0587 15.5826 82.9961 14.902 82.9961 14.1353V10.0751H79.945V7.68118H85.8829V14.5109C85.8829 15.168 86.0002 15.6609 86.2349 15.9895C86.4853 16.3024 86.8921 16.4588 87.4553 16.4588C87.7213 16.4588 88.0421 16.4276 88.4176 16.365C88.7931 16.2867 89.2156 16.1381 89.685 15.919L90.0605 18.2425ZM77.9969 18.4068C78.169 18.3286 78.2786 18.2738 78.3255 18.2425L77.95 15.919C77.8248 15.966 77.5666 16.0677 77.1755 16.2241C76.7843 16.3806 76.2993 16.4588 75.7204 16.4588C75.2666 16.4588 74.8911 16.3259 74.5938 16.0599C74.2965 15.7939 74.1479 15.2854 74.1479 14.5343V2.56478H68.2101V4.95869H71.2611V14.3231C71.2611 15.8408 71.5662 16.9986 72.1764 17.7966C72.7867 18.5789 73.7567 18.9701 75.0867 18.9701C75.5717 18.9701 76.002 18.9388 76.3775 18.8762C76.7687 18.8136 77.0973 18.7432 77.3632 18.665C77.6292 18.5711 77.8405 18.4851 77.9969 18.4068ZM56.3578 13.2902C56.3578 12.3201 56.5065 11.4674 56.8037 10.732C57.101 9.99665 57.4922 9.38643 57.9772 8.90139C58.4623 8.40071 59.0177 8.02519 59.6436 7.77485C60.2694 7.5245 60.9109 7.39933 61.5681 7.39933C63.1953 7.39933 64.4314 7.88437 65.2763 8.85445C66.1212 9.80889 66.5437 11.2092 66.5437 13.0555C66.5437 13.2433 66.5359 13.4389 66.5202 13.6423C66.5202 13.8457 66.5124 14.01 66.4967 14.1351H59.3385C59.3385 14.8549 59.6358 15.426 60.2303 15.8484C60.8249 16.2552 61.5916 16.4586 62.5304 16.4586C63.1093 16.4586 63.6569 16.3961 64.1732 16.2709C64.7052 16.1457 65.1511 16.0205 65.511 15.8954L65.91 18.3597C65.4093 18.5318 64.8773 18.6726 64.3141 18.7821C63.7508 18.9073 63.1171 18.9699 62.413 18.9699C61.4742 18.9699 60.6293 18.8525 59.8783 18.6179C59.1429 18.3675 58.5092 18.0076 57.9772 17.5382C57.4609 17.0532 57.0619 16.4586 56.7803 15.7545C56.4986 15.0505 56.3578 14.229 56.3578 13.2902ZM63.7508 12.1402C63.7508 11.8429 63.7117 11.5613 63.6334 11.2953C63.5552 11.0137 63.43 10.7633 63.2579 10.5443C63.0858 10.3252 62.8668 10.1531 62.6008 10.0279C62.3348 9.88712 62.0062 9.81671 61.615 9.81671C61.2395 9.81671 60.9109 9.8793 60.6293 10.0045C60.3633 10.1296 60.1364 10.3018 59.9487 10.5208C59.7766 10.7399 59.6358 10.9902 59.5262 11.2718C59.4324 11.5535 59.3698 11.8429 59.3385 12.1402H63.7508ZM38.0511 16.6464H38.9664C39.2637 16.6308 39.5219 16.6073 39.7409 16.576V14.0413C39.5532 14.01 39.3263 13.9865 39.0603 13.9708C38.7943 13.9396 38.5518 13.9239 38.3327 13.9239C38.0355 13.9239 37.746 13.9474 37.4644 13.9943C37.1827 14.0256 36.9324 14.0882 36.7133 14.1821C36.5099 14.276 36.3456 14.409 36.2205 14.5811C36.0953 14.7532 36.0327 14.98 36.0327 15.2617C36.0327 15.7624 36.2205 16.1222 36.596 16.3413C36.9715 16.5447 37.4565 16.6464 38.0511 16.6464ZM37.7929 7.39933C38.7004 7.39933 39.4515 7.50886 40.046 7.72791C40.6562 7.93131 41.1413 8.22859 41.5011 8.61976C41.861 8.99527 42.1192 9.46467 42.2756 10.0279C42.4321 10.5756 42.5103 11.1936 42.5103 11.882V18.4536C42.0879 18.5474 41.462 18.657 40.6328 18.7821C39.8035 18.9073 38.8725 18.9699 37.8399 18.9699C37.1358 18.9699 36.4943 18.9073 35.9154 18.7821C35.3521 18.657 34.867 18.4536 34.4602 18.1719C34.0534 17.8746 33.7405 17.4991 33.5214 17.0454C33.3024 16.576 33.1929 16.0049 33.1929 15.3321C33.1929 14.6906 33.318 14.1508 33.5684 13.7127C33.8187 13.2746 34.1551 12.9225 34.5776 12.6565C35 12.3906 35.4851 12.2028 36.0327 12.0933C36.5803 11.9681 37.1514 11.9055 37.746 11.9055C38.497 11.9055 39.162 11.9681 39.7409 12.0933V11.7412C39.7409 11.1936 39.5688 10.7399 39.2246 10.38C38.8804 10.0045 38.2858 9.81671 37.4409 9.81671C36.8933 9.81671 36.3613 9.85583 35.8449 9.93406C35.3443 10.0123 34.9375 10.1062 34.6245 10.2157L34.2255 7.8922C34.5854 7.76702 35.0939 7.6575 35.7511 7.56362C36.4082 7.45409 37.0888 7.39933 37.7929 7.39933ZM30.001 10.4743C30.267 10.5212 30.4939 10.5682 30.6816 10.6151L31.198 7.93957C30.932 7.84569 30.6269 7.77528 30.2826 7.72834C29.9541 7.66576 29.6255 7.61882 29.2969 7.58752C28.9683 7.54059 28.6554 7.50929 28.3581 7.49365C28.0765 7.478 27.8574 7.47018 27.701 7.47018C26.6214 7.47018 25.6747 7.55623 24.8611 7.72834C24.0632 7.90045 23.2808 8.12733 22.5142 8.40897V18.7122H25.4244V10.5212C25.8312 10.4117 26.2302 10.3413 26.6214 10.31C27.0125 10.2631 27.4115 10.2396 27.8183 10.2396C27.9904 10.2396 28.2017 10.2474 28.452 10.2631C28.7023 10.2787 28.9605 10.31 29.2265 10.357C29.4925 10.3882 29.7507 10.4274 30.001 10.4743Z" fill="url(#paint0_linear_82_2222)"/>
<defs>
<linearGradient id="paint0_linear_82_2222" x1="19.483" y1="22.8762" x2="158.217" y2="-10.9673" gradientUnits="userSpaceOnUse">
<stop stop-color="#385BD2"/>
<stop offset="1" stop-color="#00A0FC"/>
</linearGradient>
</defs>
</svg>
