<svg width="36" height="36" viewBox="0 0 36 36" fill="none" xmlns="http://www.w3.org/2000/svg">
    <rect width="36" height="36" rx="18" fill="url(#paint0_linear_150_1545)" />
    <path
        d="M17.1518 13.1583L14.0602 10.0667C14.0018 10.0083 13.9268 9.95833 13.8435 9.925C13.8352 9.925 13.8268 9.925 13.8185 9.91667C13.7518 9.89167 13.6852 9.875 13.6102 9.875C13.4435 9.875 13.2852 9.94167 13.1685 10.0583L10.0602 13.1583C9.81849 13.4 9.81849 13.8 10.0602 14.0417C10.3018 14.2833 10.7018 14.2833 10.9435 14.0417L12.9852 12V25.5C12.9852 25.8417 13.2685 26.125 13.6102 26.125C13.9518 26.125 14.2352 25.8417 14.2352 25.5V12.0083L16.2685 14.0417C16.3935 14.1667 16.5518 14.225 16.7102 14.225C16.8685 14.225 17.0268 14.1667 17.1518 14.0417C17.3935 13.8 17.3935 13.4083 17.1518 13.1583Z"
        fill="white" />
    <path
        d="M25.9409 21.9583C25.6992 21.7167 25.2992 21.7167 25.0576 21.9583L23.0159 24V10.5C23.0159 10.1583 22.7326 9.875 22.3909 9.875C22.0492 9.875 21.7659 10.1583 21.7659 10.5V23.9917L19.7326 21.9583C19.4909 21.7167 19.0909 21.7167 18.8492 21.9583C18.6076 22.2 18.6076 22.6 18.8492 22.8417L21.9409 25.9333C21.9992 25.9917 22.0742 26.0417 22.1576 26.075C22.1659 26.075 22.1742 26.075 22.1826 26.0833C22.2492 26.1083 22.3242 26.125 22.3992 26.125C22.5659 26.125 22.7242 26.0583 22.8409 25.9417L25.9409 22.8417C26.1826 22.5917 26.1826 22.2 25.9409 21.9583Z"
        fill="white" />
    <defs>
        <linearGradient id="paint0_linear_150_1545" x1="2.5139" y1="31.7842" x2="36.8928"
            y2="30.6158" gradientUnits="userSpaceOnUse">
            <stop stop-color="#385BD2" />
            <stop offset="1" stop-color="#00A0FC" />
        </linearGradient>
    </defs>
</svg>
    