<svg width="21" height="20" viewBox="0 0 21 20" fill="none" xmlns="http://www.w3.org/2000/svg">
  <path
    d="M12.9974 12.9167C12.9974 15.9083 10.5724 18.3333 7.58073 18.3333C4.58906 18.3333 2.16406 15.9083 2.16406 12.9167C2.16406 9.925 4.58906 7.5 7.58073 7.5C7.7224 7.5 7.8724 7.50833 8.01406 7.51667C10.6557 7.725 12.7724 9.84167 12.9807 12.4833C12.9891 12.625 12.9974 12.775 12.9974 12.9167Z"
    fill="white" />
  <path
    d="M18.837 7.08317C18.837 9.79984 16.837 12.0415 14.237 12.4332V12.3832C13.9786 9.14984 11.3536 6.52484 8.09531 6.2665H8.07031C8.46198 3.6665 10.7036 1.6665 13.4203 1.6665C16.412 1.6665 18.837 4.0915 18.837 7.08317Z"
    fill="white" />
  <path
    d="M5.15573 1.6665H2.9974C2.53906 1.6665 2.16406 2.0415 2.16406 2.49984V4.65817C2.16406 5.39984 3.06406 5.77484 3.58906 5.24984L5.7474 3.0915C6.26406 2.5665 5.8974 1.6665 5.15573 1.6665Z"
    fill="white" />
  <path
    d="M15.8408 18.3332H17.9991C18.4575 18.3332 18.8325 17.9582 18.8325 17.4999V15.3416C18.8325 14.5999 17.9325 14.2249 17.4075 14.7499L15.2491 16.9082C14.7325 17.4332 15.0991 18.3332 15.8408 18.3332Z"
    fill="white" />
</svg>
  