<svg width="20" height="20" viewBox="0 0 20 20" fill="none" xmlns="http://www.w3.org/2000/svg">
    <path
        d="M17.9677 8.94997L16.8344 7.6333C16.6177 7.3833 16.4427 6.91663 16.4427 6.5833V5.16663C16.4427 4.2833 15.7177 3.5583 14.8344 3.5583H13.4177C13.0927 3.5583 12.6177 3.3833 12.3677 3.16663L11.051 2.0333C10.476 1.54163 9.53437 1.54163 8.95104 2.0333L7.64271 3.17497C7.39271 3.3833 6.91771 3.5583 6.59271 3.5583H5.15104C4.26771 3.5583 3.54271 4.2833 3.54271 5.16663V6.59163C3.54271 6.91663 3.36771 7.3833 3.15937 7.6333L2.03437 8.9583C1.55104 9.5333 1.55104 10.4666 2.03437 11.0416L3.15937 12.3666C3.36771 12.6166 3.54271 13.0833 3.54271 13.4083V14.8333C3.54271 15.7166 4.26771 16.4416 5.15104 16.4416H6.59271C6.91771 16.4416 7.39271 16.6166 7.64271 16.8333L8.95937 17.9666C9.53437 18.4583 10.476 18.4583 11.0594 17.9666L12.376 16.8333C12.626 16.6166 13.0927 16.4416 13.426 16.4416H14.8427C15.726 16.4416 16.451 15.7166 16.451 14.8333V13.4166C16.451 13.0916 16.626 12.6166 16.8427 12.3666L17.976 11.05C18.4594 10.475 18.4594 9.52497 17.9677 8.94997Z"
        fill="white" />
    <path
        d="M17.9677 8.94997L16.8344 7.6333C16.6177 7.3833 16.4427 6.91663 16.4427 6.5833V5.16663C16.4427 4.2833 15.7177 3.5583 14.8344 3.5583H13.4177C13.0927 3.5583 12.6177 3.3833 12.3677 3.16663L11.051 2.0333C10.476 1.54163 9.53437 1.54163 8.95104 2.0333L7.64271 3.17497C7.39271 3.3833 6.91771 3.5583 6.59271 3.5583H5.15104C4.26771 3.5583 3.54271 4.2833 3.54271 5.16663V6.59163C3.54271 6.91663 3.36771 7.3833 3.15937 7.6333L2.03437 8.9583C1.55104 9.5333 1.55104 10.4666 2.03437 11.0416L3.15937 12.3666C3.36771 12.6166 3.54271 13.0833 3.54271 13.4083V14.8333C3.54271 15.7166 4.26771 16.4416 5.15104 16.4416H6.59271C6.91771 16.4416 7.39271 16.6166 7.64271 16.8333L8.95937 17.9666C9.53437 18.4583 10.476 18.4583 11.0594 17.9666L12.376 16.8333C12.626 16.6166 13.0927 16.4416 13.426 16.4416H14.8427C15.726 16.4416 16.451 15.7166 16.451 14.8333V13.4166C16.451 13.0916 16.626 12.6166 16.8427 12.3666L17.976 11.05C18.4594 10.475 18.4594 9.52497 17.9677 8.94997ZM13.4677 8.42497L9.44271 12.45C9.32604 12.5666 9.16771 12.6333 9.00104 12.6333C8.83437 12.6333 8.67604 12.5666 8.55937 12.45L6.54271 10.4333C6.30104 10.1916 6.30104 9.79163 6.54271 9.54997C6.78437 9.3083 7.18437 9.3083 7.42604 9.54997L9.00104 11.125L12.5844 7.54163C12.826 7.29997 13.226 7.29997 13.4677 7.54163C13.7094 7.7833 13.7094 8.1833 13.4677 8.42497Z"
        fill="url(#paint0_linear_153_37974)" />
    <defs>
        <linearGradient id="paint0_linear_153_37974" x1="2.83565" y1="16.3831" x2="18.7508"
            y2="15.8424" gradientUnits="userSpaceOnUse">
            <stop stop-color="#385BD2" />
            <stop offset="1" stop-color="#00A0FC" />
        </linearGradient>
    </defs>
</svg>
    