<svg width="35" height="35" viewBox="0 0 35 35" fill="none" xmlns="http://www.w3.org/2000/svg">
<path d="M17.5 0C7.8575 0 0 7.8571 0 17.4991C0 27.1411 7.8575 34.9982 17.5 34.9982C27.1425 34.9982 35 27.1411 35 17.4991C35 7.8571 27.1425 0 17.5 0Z" fill="white"/>
<path d="M17.5 0C7.8575 0 0 7.8571 0 17.4991C0 27.1411 7.8575 34.9982 17.5 34.9982C27.1425 34.9982 35 27.1411 35 17.4991C35 7.8571 27.1425 0 17.5 0ZM25.865 13.4743L15.9425 23.3963C15.6975 23.6413 15.365 23.7813 15.015 23.7813C14.665 23.7813 14.3325 23.6413 14.0875 23.3963L9.135 18.4441C8.6275 17.9366 8.6275 17.0966 9.135 16.5892C9.6425 16.0817 10.4825 16.0817 10.99 16.5892L15.015 20.614L24.01 11.6194C24.5175 11.1119 25.3575 11.1119 25.865 11.6194C26.3725 12.1269 26.3725 12.9493 25.865 13.4743Z" fill="#385BD2"/>
</svg>
