<svg width="20" height="20" viewBox="0 0 20 20" fill="none" xmlns="http://www.w3.org/2000/svg">
    <path
        d="M17.9677 8.94997L16.8344 7.6333C16.6177 7.3833 16.4427 6.91663 16.4427 6.5833V5.16663C16.4427 4.2833 15.7177 3.5583 14.8344 3.5583H13.4177C13.0927 3.5583 12.6177 3.3833 12.3677 3.16663L11.051 2.0333C10.476 1.54163 9.53437 1.54163 8.95104 2.0333L7.64271 3.17497C7.39271 3.3833 6.91771 3.5583 6.59271 3.5583H5.15104C4.26771 3.5583 3.54271 4.2833 3.54271 5.16663V6.59163C3.54271 6.91663 3.36771 7.3833 3.15937 7.6333L2.03437 8.9583C1.55104 9.5333 1.55104 10.4666 2.03437 11.0416L3.15937 12.3666C3.36771 12.6166 3.54271 13.0833 3.54271 13.4083V14.8333C3.54271 15.7166 4.26771 16.4416 5.15104 16.4416H6.59271C6.91771 16.4416 7.39271 16.6166 7.64271 16.8333L8.95937 17.9666C9.53437 18.4583 10.476 18.4583 11.0594 17.9666L12.376 16.8333C12.626 16.6166 13.0927 16.4416 13.426 16.4416H14.8427C15.726 16.4416 16.451 15.7166 16.451 14.8333V13.4166C16.451 13.0916 16.626 12.6166 16.8427 12.3666L17.976 11.05C18.4594 10.475 18.4594 9.52497 17.9677 8.94997ZM13.901 9.99997L12.926 12.9666C12.801 13.4583 12.276 13.8583 11.7427 13.8583H10.201C9.93437 13.8583 9.55937 13.7666 9.39271 13.6L8.16771 12.6416C8.14271 13.175 7.90104 13.4 7.30937 13.4H6.90937C6.29271 13.4 6.04271 13.1583 6.04271 12.575V8.59163C6.04271 8.0083 6.29271 7.76663 6.90937 7.76663H7.31771C7.93437 7.76663 8.18437 8.0083 8.18437 8.59163V8.89163L9.80104 6.49163C9.96771 6.2333 10.3927 6.04997 10.751 6.19163C11.1427 6.32497 11.3927 6.7583 11.3094 7.14163L11.1094 8.44163C11.0927 8.5583 11.1177 8.66663 11.1927 8.74997C11.2594 8.82497 11.3594 8.87497 11.4677 8.87497H13.0927C13.4094 8.87497 13.676 8.99997 13.8344 9.22497C13.976 9.44163 14.001 9.71663 13.901 9.99997Z"
        fill="#03AD00" />
</svg>
    