<svg width="20" height="20" viewBox="0 0 20 20" fill="none" xmlns="http://www.w3.org/2000/svg">
<path d="M12.7218 18.3337C12.6718 18.3337 12.6135 18.3253 12.5635 18.3087C10.8885 17.8337 9.13017 17.8337 7.45517 18.3087C7.14684 18.392 6.82184 18.217 6.73851 17.9087C6.64684 17.6003 6.83017 17.2753 7.13851 17.192C9.02184 16.6587 11.0052 16.6587 12.8885 17.192C13.1968 17.2837 13.3802 17.6003 13.2885 17.9087C13.2052 18.167 12.9718 18.3337 12.7218 18.3337Z" fill="#313235"/>
<path d="M16.0203 5.29928C15.1536 3.54928 13.4786 2.25761 11.537 1.83261C9.50365 1.38261 7.42031 1.86594 5.82865 3.14928C4.22865 4.42428 3.32031 6.33261 3.32031 8.37428C3.32031 10.5326 4.61198 12.7909 6.56198 14.0993V14.7909C6.55365 15.0243 6.54531 15.3826 6.82865 15.6743C7.12031 15.9743 7.55365 16.0076 7.89531 16.0076H12.1703C12.6203 16.0076 12.962 15.8826 13.1953 15.6493C13.512 15.3243 13.5036 14.9076 13.4953 14.6826V14.0993C16.0786 12.3576 17.7036 8.68261 16.0203 5.29928ZM11.4453 9.68261L10.5536 11.2326C10.437 11.4326 10.2286 11.5493 10.012 11.5493C9.90365 11.5493 9.79531 11.5243 9.70365 11.4659C9.40365 11.2909 9.30365 10.9076 9.47031 10.6159L10.1786 9.38261H9.47865C9.06198 9.38261 8.72031 9.19928 8.53698 8.89094C8.35365 8.57428 8.37031 8.19094 8.57865 7.82428L9.47031 6.27428C9.64531 5.97428 10.0286 5.87428 10.3203 6.04094C10.6203 6.21594 10.7203 6.59928 10.5536 6.89094L9.84531 8.12428H10.5453C10.962 8.12428 11.3036 8.30761 11.487 8.61594C11.6703 8.93261 11.6536 9.32428 11.4453 9.68261Z" fill="#313235"/>
</svg>
